<?xml version="1.0" encoding="iso-8859-1"?>
<!-- Generator: Adobe Illustrator 19.0.0, SVG Export Plug-In . SVG Version: 6.00 Build 0)  -->
<svg version="1.1" id="Capa_1" xmlns="http://www.w3.org/2000/svg" xmlns:xlink="http://www.w3.org/1999/xlink" x="0px" y="0px"
	 viewBox="0 0 415.793 415.793" style="enable-background:new 0 0 415.793 415.793;" xml:space="preserve">
<g id="XMLID_222_">
	<path id="XMLID_223_" d="M415.235,183.703C393.637,106.768,308.377,53.036,207.897,53.036c-50.073,0-96.885,13.357-135.376,38.628
		C36.056,115.605,10.5,148.292,0.558,183.703c-1.268,4.52-0.348,9.373,2.487,13.115c2.836,3.741,7.26,5.939,11.955,5.939h37.897
		c8.284,0,15-6.716,15-15v-25.275c5.533-2.597,14.524-6.288,27.295-9.956c10.648-3.059,25.071-6.405,43.428-9.014
		c-1.832,1.563-3.459,3.393-4.798,5.472l-91.07,141.368c-2.601,4.037-3.983,8.737-3.983,13.539v33.866c0,13.807,11.193,25,25,25
		h288.255c13.807,0,25-11.193,25-25v-33.866c0-4.802-1.383-9.502-3.983-13.539l-91.07-141.368c-1.339-2.078-2.965-3.909-4.797-5.472
		c18.352,2.608,32.77,5.954,43.414,9.012c12.769,3.668,21.756,7.359,27.287,9.956v25.276c0,8.284,6.716,15,15,15h37.918
		c4.695,0,9.119-2.198,11.955-5.939C415.583,193.077,416.504,188.223,415.235,183.703z M207.897,177.757c41.355,0,75,33.645,75,75
		s-33.645,75-75,75s-75-33.645-75-75S166.542,177.757,207.897,177.757z"/>
	<path id="XMLID_226_" d="M207.897,207.757c-24.813,0-45,20.187-45,45s20.187,45,45,45s45-20.187,45-45
		S232.71,207.757,207.897,207.757z"/>
</g>
<g>
</g>
<g>
</g>
<g>
</g>
<g>
</g>
<g>
</g>
<g>
</g>
<g>
</g>
<g>
</g>
<g>
</g>
<g>
</g>
<g>
</g>
<g>
</g>
<g>
</g>
<g>
</g>
<g>
</g>
</svg>
